<svg width="512" height="512" viewBox="0 0 512 512" fill="none" xmlns="http://www.w3.org/2000/svg">
  <rect width="512" height="512" rx="128" fill="url(#paint0_linear)"/>
  <path d="M150 340C150 310 170 290 200 290H312C330 290 345 275 345 257C345 239 330 224 312 224H200C160 224 125 190 125 150C125 110 160 76 200 76H312C352 76 387 110 387 150H337C337 135 325 124 312 124H200C185 124 175 135 175 150C175 165 185 176 200 176H312C352 176 387 210 387 250C387 290 352 324 312 324H200C180 324 150 310 150 340Z" fill="white" fill-opacity="0.2"/>
  <path d="M140 330C140 300 160 280 190 280H302C320 280 335 265 335 247C335 229 320 214 302 214H190C150 214 115 180 115 140C115 100 150 66 190 66H302C342 66 377 100 377 140H327C327 125 315 114 302 114H190C175 114 165 125 165 140C165 155 175 166 190 166H302C342 166 377 200 377 240C377 280 342 314 302 314H190C170 314 140 300 140 330Z" fill="white"/>
  <defs>
    <linearGradient id="paint0_linear" x1="0" y1="0" x2="512" y2="512" gradientUnits="userSpaceOnUse">
      <stop stop-color="#4F46E5"/>
      <stop offset="1" stop-color="#7C3AED"/>
    </linearGradient>
  </defs>
</svg>
